<?xml version="1.0" encoding="UTF-8"?>
<svg id="Layer_1" data-name="Layer 1" xmlns="http://www.w3.org/2000/svg" viewBox="0 0 329.39 214.22">
  <defs>
    <style>
      .cls-1, .cls-2 {
        fill: none;
      }

      .cls-1, .cls-2, .cls-3, .cls-4 {
        stroke: #231f20;
        stroke-miterlimit: 10;
      }

      .cls-5, .cls-6, .cls-7, .cls-8, .cls-9, .cls-10 {
        fill: #231f20;
      }

      .cls-6 {
        letter-spacing: -.4em;
      }

      .cls-6, .cls-7, .cls-8, .cls-9 {
        font-size: 12px;
      }

      .cls-6, .cls-8, .cls-11 {
        font-family: Cmmi12, cmmi12;
      }

      .cls-12, .cls-7 {
        font-family: Cmr12, cmr12;
      }

      .cls-2 {
        stroke-width: 2px;
      }

      .cls-3, .cls-4 {
        fill: #fff;
      }

      .cls-4 {
        stroke-width: .5px;
      }

      .cls-10 {
        font-family: Cmex10, cmex10;
        font-size: 10px;
        letter-spacing: .08em;
      }
    </style>
  </defs>
  <g>
    <polyline class="cls-1" points="22.04 30.99 22.04 194.51 323.42 194.51"/>
    <polygon class="cls-5" points="18.34 33.8 22.04 32.22 25.75 33.8 22.04 25.02 18.34 33.8"/>
    <polygon class="cls-5" points="320.61 198.22 322.18 194.51 320.61 190.81 329.39 194.51 320.61 198.22"/>
  </g>
  <text class="cls-8" transform="translate(59.89 207.22)"><tspan x="0" y="0">x</tspan></text>
  <text class="cls-7" transform="translate(66.56 211.22) scale(.58)"><tspan x="0" y="0">1</tspan></text>
  <text class="cls-8" transform="translate(95.23 207.22)"><tspan x="0" y="0">x</tspan></text>
  <text class="cls-7" transform="translate(101.91 211.22) scale(.58)"><tspan x="0" y="0">2</tspan></text>
  <text class="cls-8" transform="translate(150.58 207.22)"><tspan x="0" y="0">x</tspan></text>
  <text class="cls-7" transform="translate(157.26 211.22) scale(.58)"><tspan x="0" y="0">3</tspan></text>
  <text class="cls-8" transform="translate(195.93 207.22)"><tspan x="0" y="0">x</tspan></text>
  <text class="cls-7" transform="translate(202.6 211.22) scale(.58)"><tspan x="0" y="0">4</tspan></text>
  <text class="cls-8" transform="translate(261.28 207.22)"><tspan x="0" y="0">x</tspan></text>
  <text class="cls-7" transform="translate(267.95 211.22) scale(.58)"><tspan x="0" y="0">5</tspan></text>
  <line class="cls-4" x1="62.11" y1="194.51" x2="62.11" y2="189.4"/>
  <line class="cls-4" x1="99.53" y1="194.51" x2="99.53" y2="189.4"/>
  <line class="cls-4" x1="153.96" y1="194.51" x2="153.96" y2="189.4"/>
  <line class="cls-4" x1="199.38" y1="194.51" x2="199.38" y2="189.4"/>
  <line class="cls-4" x1="263.81" y1="194.51" x2="263.81" y2="189.4"/>
  <line class="cls-4" x1="22.04" y1="47.28" x2="27.15" y2="47.28"/>
  <line class="cls-4" x1="22.04" y1="77.7" x2="27.15" y2="77.7"/>
  <line class="cls-4" x1="22.04" y1="108.13" x2="27.15" y2="108.13"/>
  <line class="cls-4" x1="22.04" y1="138.56" x2="27.15" y2="138.56"/>
  <line class="cls-4" x1="22.04" y1="168.98" x2="27.15" y2="168.98"/>
  <text class="cls-7" transform="translate(0 172.42)"><tspan x="0" y="0">1/5</tspan></text>
  <text class="cls-7" transform="translate(0 141.83)"><tspan x="0" y="0">2/5</tspan></text>
  <text class="cls-7" transform="translate(0 112.24)"><tspan x="0" y="0">3/5</tspan></text>
  <text class="cls-7" transform="translate(0 81.65)"><tspan x="0" y="0">4/5</tspan></text>
  <text class="cls-7" transform="translate(11.73 51.06)"><tspan x="0" y="0">1</tspan></text>
  <line class="cls-2" x1="22.04" y1="194.51" x2="62.11" y2="194.51"/>
  <line class="cls-2" x1="62.11" y1="168.98" x2="99.53" y2="168.98"/>
  <line class="cls-2" x1="99.53" y1="138.56" x2="153.96" y2="138.56"/>
  <line class="cls-2" x1="153.96" y1="108.13" x2="199.38" y2="108.13"/>
  <line class="cls-2" x1="199.38" y1="77.7" x2="263.81" y2="77.7"/>
  <line class="cls-2" x1="263.81" y1="47.28" x2="316.21" y2="47.28"/>
  <circle class="cls-5" cx="61.89" cy="168.98" r="2"/>
  <circle class="cls-3" cx="61.89" cy="194.51" r="2"/>
  <circle class="cls-5" cx="99.53" cy="138.56" r="2"/>
  <circle class="cls-5" cx="153.96" cy="108.13" r="2"/>
  <circle class="cls-5" cx="199.38" cy="77.7" r="2"/>
  <circle class="cls-5" cx="263.81" cy="47.28" r="2"/>
  <text class="cls-6" transform="translate(114.43 72.65)"><tspan x="0" y="0">F</tspan></text>
  <text class="cls-10" transform="translate(117.22 66.32) scale(.58)"><tspan x="0" y="0">f</tspan></text>
  <text class="cls-9" transform="translate(123.52 72.65)"><tspan class="cls-12" x="0" y="0">(</tspan><tspan class="cls-11" x="4.56" y="0">x</tspan><tspan class="cls-12" x="11.23" y="0">)</tspan></text>
  <g>
    <path class="cls-1" d="M130.93,78.06c7.34,6.93,18.28,14.95,25.8,19.68"/>
    <polygon class="cls-5" points="154.57 98.5 156.23 97.36 156.56 95.37 159.27 99.29 154.57 98.5"/>
  </g>
  <circle class="cls-3" cx="99.53" cy="168.98" r="2"/>
  <circle class="cls-3" cx="153.96" cy="138.56" r="2"/>
  <circle class="cls-3" cx="199.38" cy="108.13" r="2"/>
  <circle class="cls-3" cx="263.81" cy="77.7" r="2"/>
</svg>