<?xml version="1.0" encoding="utf-8"?>
<!-- Generator: Adobe Illustrator 27.3.1, SVG Export Plug-In . SVG Version: 6.00 Build 0)  -->
<svg version="1.1" id="Layer_1" xmlns="http://www.w3.org/2000/svg" xmlns:xlink="http://www.w3.org/1999/xlink" x="0px" y="0px"
	 viewBox="0 0 587.1 148.9" style="enable-background:new 0 0 587.1 148.9;" xml:space="preserve">
<style type="text/css">
	.st0{font-family:'MyriadPro-Bold';}
	.st1{font-size:14px;}
	.st2{fill:#E52525;}
	.st3{font-family:'MyriadPro-Regular';}
	.st4{font-size:12px;}
	.st5{font-family:'MyriadPro-It';}
	.st6{fill:none;stroke:#000000;stroke-miterlimit:10;}
	.st7{fill:none;stroke:#EE2032;stroke-miterlimit:10;}
	.st8{fill:#EE2032;}
	.st9{font-size:6px;}
</style>
<text transform="matrix(1 0 0 1 257.4604 13.1413)" class="st0 st1">System analysis</text>
<text transform="matrix(1 0 0 1 277.008 46.3801)"><tspan x="0" y="0" class="st2 st3 st4">Real system (</tspan><tspan x="64.7" y="0" class="st2 st5 st4">S</tspan><tspan x="70.3" y="0" class="st2 st3 st4">)</tspan></text>
<text transform="matrix(1 0 0 1 255.7329 108.3762)" class="st3 st4">Direct experimentation</text>
<text transform="matrix(1 0 0 1 116.8846 46.3804)" class="st3 st4">Physical model</text>
<text transform="matrix(1 0 0 1 106.6007 109.8484)" class="st3 st4">Physical simulation</text>
<text transform="matrix(1 0 0 1 430.4178 46.3802)"><tspan x="0" y="0" class="st2 st3 st4">Mathematical/</tspan><tspan x="0" y="14.4" class="st2 st3 st4">formal model </tspan><tspan x="69.9" y="14.4" class="st2 st3 st4">(</tspan><tspan x="73.3" y="14.4" class="st2 st5 st4">M</tspan><tspan x="82.7" y="14.4" class="st2 st3 st4">)</tspan></text>
<text transform="matrix(1 0 0 1 409.5635 109.8486)"><tspan x="0" y="0" class="st3 st4">Analytic </tspan><tspan x="0" y="14.4" class="st3 st4">solution</tspan></text>
<text transform="matrix(1 0 0 1 479.3116 109.8488)"><tspan x="0" y="0" class="st2 st3 st4">Computer simulation</tspan><tspan x="0" y="14.4" class="st2 st3 st4">model + simulation</tspan></text>
<g>
	<g>
		<line class="st6" x1="257.3" y1="43.6" x2="207.7" y2="43.6"/>
		<g>
			<polygon points="210.5,39.9 208.9,43.6 210.5,47.3 201.7,43.6 			"/>
		</g>
	</g>
</g>
<g>
	<line class="st2" x1="361.8" y1="43.6" x2="418.5" y2="43.6"/>
	<g>
		<line class="st7" x1="361.8" y1="43.6" x2="412.5" y2="43.6"/>
		<g>
			<polygon class="st8" points="409.7,47.3 411.3,43.6 409.7,39.9 418.5,43.6 			"/>
		</g>
	</g>
</g>
<g>
	<g>
		<line class="st6" x1="153.6" y1="53.4" x2="153.6" y2="88.5"/>
		<g>
			<polygon points="149.9,85.7 153.6,87.3 157.3,85.7 153.6,94.5 			"/>
		</g>
	</g>
</g>
<g>
	<g>
		<line class="st6" x1="315" y1="53.4" x2="315" y2="88.5"/>
		<g>
			<polygon points="311.3,85.7 315,87.3 318.7,85.7 315,94.5 			"/>
		</g>
	</g>
</g>
<g>
	<g>
		<line class="st6" x1="435.8" y1="69" x2="435.8" y2="88.5"/>
		<g>
			<polygon points="432.1,85.7 435.8,87.3 439.5,85.7 435.8,94.5 			"/>
		</g>
	</g>
</g>
<g>
	<line class="st2" x1="503.2" y1="69" x2="503.2" y2="94.5"/>
	<g>
		<line class="st7" x1="503.2" y1="69" x2="503.2" y2="88.5"/>
		<g>
			<polygon class="st8" points="499.5,85.7 503.2,87.3 506.9,85.7 503.2,94.5 			"/>
		</g>
	</g>
</g>
<text transform="matrix(1 0 0 1 376.6093 145.8276)" class="st3 st4">(e.g., in 3060 SDM)</text>
<g id="udckLp.tif">
	
		<image style="overflow:visible;" width="620" height="413" id="Layer_0_00000180335192529864780620000005529935815874874775_" xlink:href="14451755579D0DFF.png"  transform="matrix(0.139 0 0 0.139 1.4943 36.3364)">
	</image>
</g>
<text transform="matrix(1 0 0 1 1.4941 104.0406)"><tspan x="0" y="0" class="st3 st9">https://www.slowtwitch.com/news/</tspan><tspan x="0" y="7.2" class="st3 st9">anne-haug-visits-the-wind-tunnel/</tspan></text>
</svg>
