<?xml version="1.0" encoding="UTF-8"?>
<svg id="Layer_1" xmlns="http://www.w3.org/2000/svg" xmlns:xlink="http://www.w3.org/1999/xlink" version="1.1" viewBox="0 0 460.8 345.6">
  <!-- Generator: Adobe Illustrator 29.6.0, SVG Export Plug-In . SVG Version: 2.1.1 Build 207)  -->
  <defs>
    <style>
      .st0, .st1, .st2 {
        fill: none;
      }

      .st3 {
        font-size: 18px;
      }

      .st3, .st4, .st5 {
        font-family: Cmr12, cmr12;
      }

      .st4, .st6, .st7 {
        font-size: 12px;
      }

      .st6, .st8 {
        font-family: Cmmi12, cmmi12;
      }

      .st1 {
        stroke: blue;
        stroke-opacity: .6;
      }

      .st1, .st9 {
        stroke-linejoin: round;
      }

      .st1, .st2 {
        stroke-linecap: square;
      }

      .st9, .st2 {
        stroke: #000;
        stroke-width: .8px;
      }

      .st10 {
        clip-path: url(#clippath);
      }
    </style>
    <clipPath id="clippath">
      <rect class="st0" x="57.6" y="41.5" width="357.1" height="266.1"/>
    </clipPath>
  </defs>
  <g id="figure_1">
    <g id="axes_1">
      <g id="matplotlib.axis_1">
        <g id="xtick_1">
          <g id="line2d_1">
            <path id="mdffdd0ed6c" class="st9" d="M73.8,307.6v3.5"/>
          </g>
        </g>
        <g id="xtick_2">
          <g id="line2d_2">
            <path id="mdffdd0ed6c1" data-name="mdffdd0ed6c" class="st9" d="M142.2,307.6v3.5"/>
          </g>
        </g>
        <g id="xtick_3">
          <g id="line2d_3">
            <path id="mdffdd0ed6c2" data-name="mdffdd0ed6c" class="st9" d="M210.5,307.6v3.5"/>
          </g>
        </g>
        <g id="xtick_4">
          <g id="line2d_4">
            <path id="mdffdd0ed6c3" data-name="mdffdd0ed6c" class="st9" d="M278.9,307.6v3.5"/>
          </g>
        </g>
        <g id="xtick_5">
          <g id="line2d_5">
            <path id="mdffdd0ed6c4" data-name="mdffdd0ed6c" class="st9" d="M347.2,307.6v3.5"/>
          </g>
        </g>
      </g>
      <g id="matplotlib.axis_2">
        <g id="ytick_1">
          <g id="line2d_6">
            <path id="m7bf21a7fd0" class="st9" d="M57.6,278.2h-3.5"/>
          </g>
        </g>
        <g id="ytick_2">
          <g id="line2d_7">
            <path id="m7bf21a7fd01" data-name="m7bf21a7fd0" class="st9" d="M57.6,246.2h-3.5"/>
          </g>
        </g>
        <g id="ytick_3">
          <g id="line2d_8">
            <path id="m7bf21a7fd02" data-name="m7bf21a7fd0" class="st9" d="M57.6,214.1h-3.5"/>
          </g>
        </g>
        <g id="ytick_4">
          <g id="line2d_9">
            <path id="m7bf21a7fd03" data-name="m7bf21a7fd0" class="st9" d="M57.6,182.1h-3.5"/>
          </g>
        </g>
        <g id="ytick_5">
          <g id="line2d_10">
            <path id="m7bf21a7fd04" data-name="m7bf21a7fd0" class="st9" d="M57.6,150.1h-3.5"/>
          </g>
        </g>
        <g id="ytick_6">
          <g id="line2d_11">
            <path id="m7bf21a7fd05" data-name="m7bf21a7fd0" class="st9" d="M57.6,118h-3.5"/>
          </g>
        </g>
        <g id="ytick_7">
          <g id="line2d_12">
            <path id="m7bf21a7fd06" data-name="m7bf21a7fd0" class="st9" d="M57.6,86h-3.5"/>
          </g>
        </g>
        <g id="ytick_8">
          <g id="line2d_13">
            <path id="m7bf21a7fd07" data-name="m7bf21a7fd0" class="st9" d="M57.6,53.9h-3.5"/>
          </g>
        </g>
      </g>
      <g id="line2d_14">
        <g class="st10">
          <path class="st1" d="M73.8,53.7h17.1c0,0,17.1,6.5,17.1,6.5l17.1,8.4,17.1,15.5,17.1,10.1,17.1,17.6,17.1,15,17.1,18,17.1,12.9,17.1,19.2,17.1,13.9,17.1,14.1,17.1,13.3,17.1,12.5,17.1,16.3,17.1,11.7,17.1,13.5,17.1,11.5,17.1,11.9"/>
        </g>
      </g>
      <g id="patch_3">
        <path class="st2" d="M57.6,307.6V41.5"/>
      </g>
      <g id="patch_4">
        <path class="st2" d="M414.7,307.6V41.5"/>
      </g>
      <g id="patch_5">
        <path class="st2" d="M57.6,307.6h357.1"/>
      </g>
      <g id="patch_6">
        <path class="st2" d="M57.6,41.5h357.1"/>
      </g>
      <g id="legend_1">
        <g id="line2d_15">
          <path class="st1" d="M340.5,54.6h20"/>
        </g>
      </g>
    </g>
  </g>
  <text class="st7" transform="translate(368.5 59.6)"><tspan class="st8" x="0" y="0">E</tspan><tspan class="st5" x="8.7" y="0">(</tspan><tspan class="st8" x="13.2" y="0">¿</tspan></text>
  <text class="st6" transform="translate(386.8 63.6) scale(.6)"><tspan x="0" y="0">c</tspan></text>
  <text class="st4" transform="translate(389.8 59.6)"><tspan x="0" y="0">)</tspan></text>
  <text class="st3" transform="translate(36.8 282.6) scale(.6)"><tspan x="0" y="0">2.8</tspan></text>
  <text class="st3" transform="translate(36.8 250.3) scale(.6)"><tspan x="0" y="0">2.9</tspan></text>
  <text class="st3" transform="translate(36.8 218) scale(.6)"><tspan x="0" y="0">3.0</tspan></text>
  <text class="st3" transform="translate(36.8 185.7) scale(.6)"><tspan x="0" y="0">3.1</tspan></text>
  <text class="st3" transform="translate(36.8 153.5) scale(.6)"><tspan x="0" y="0">3.2</tspan></text>
  <text class="st3" transform="translate(36.8 121.2) scale(.6)"><tspan x="0" y="0">3.3</tspan></text>
  <text class="st3" transform="translate(36.8 88.9) scale(.6)"><tspan x="0" y="0">3.4</tspan></text>
  <text class="st3" transform="translate(37.3 56.6) scale(.6)"><tspan x="0" y="0">3.5</tspan></text>
  <text class="st6" transform="translate(233.3 333.2)"><tspan x="0" y="0">¿</tspan></text>
  <text class="st6" transform="translate(238.4 337.2) scale(.6)"><tspan x="0" y="0">c</tspan></text>
  <text class="st3" transform="translate(65.8 325.9) scale(.6)"><tspan x="0" y="0">0.0</tspan></text>
  <text class="st3" transform="translate(134.9 325.9) scale(.6)"><tspan x="0" y="0">0.2</tspan></text>
  <text class="st3" transform="translate(204 325.9) scale(.6)"><tspan x="0" y="0">0.4</tspan></text>
  <text class="st3" transform="translate(273.1 325.9) scale(.6)"><tspan x="0" y="0">0.6</tspan></text>
  <text class="st3" transform="translate(342.1 325.9) scale(.6)"><tspan x="0" y="0">0.8</tspan></text>
</svg>