<?xml version="1.0" encoding="utf-8" standalone="no"?>
<!DOCTYPE svg PUBLIC "-//W3C//DTD SVG 1.1//EN"
  "http://www.w3.org/Graphics/SVG/1.1/DTD/svg11.dtd">
<svg xmlns:xlink="http://www.w3.org/1999/xlink" width="460.8pt" height="345.6pt" viewBox="0 0 460.8 345.6" xmlns="http://www.w3.org/2000/svg" version="1.1">
 <metadata>
  <rdf:RDF xmlns:dc="http://purl.org/dc/elements/1.1/" xmlns:cc="http://creativecommons.org/ns#" xmlns:rdf="http://www.w3.org/1999/02/22-rdf-syntax-ns#">
   <cc:Work>
    <dc:type rdf:resource="http://purl.org/dc/dcmitype/StillImage"/>
    <dc:date>2025-09-18T22:04:41.635389</dc:date>
    <dc:format>image/svg+xml</dc:format>
    <dc:creator>
     <cc:Agent>
      <dc:title>Matplotlib v3.10.3, https://matplotlib.org/</dc:title>
     </cc:Agent>
    </dc:creator>
   </cc:Work>
  </rdf:RDF>
 </metadata>
 <defs>
  <style type="text/css">*{stroke-linejoin: round; stroke-linecap: butt}</style>
 </defs>
 <g id="figure_1">
  <g id="patch_1">
   <path d="M 0 345.6 
L 460.8 345.6 
L 460.8 0 
L 0 0 
z
" style="fill: #ffffff"/>
  </g>
  <g id="axes_1">
   <g id="patch_2">
    <path d="M 57.6 307.584 
L 414.72 307.584 
L 414.72 41.472 
L 57.6 41.472 
z
" style="fill: #ffffff"/>
   </g>
   <g id="matplotlib.axis_1">
    <g id="xtick_1">
     <g id="line2d_1">
      <defs>
       <path id="m806dea1592" d="M 0 0 
L 0 3.5 
" style="stroke: #000000; stroke-width: 0.8"/>
      </defs>
      <g>
       <use xlink:href="#m806dea1592" x="73.507748" y="307.584" style="stroke: #000000; stroke-width: 0.8"/>
      </g>
     </g>
     <g id="text_1">
      <!-- 0 -->
      <g transform="translate(70.326498 322.182437) scale(0.1 -0.1)">
       <defs>
        <path id="DejaVuSans-30" d="M 2034 4250 
Q 1547 4250 1301 3770 
Q 1056 3291 1056 2328 
Q 1056 1369 1301 889 
Q 1547 409 2034 409 
Q 2525 409 2770 889 
Q 3016 1369 3016 2328 
Q 3016 3291 2770 3770 
Q 2525 4250 2034 4250 
z
M 2034 4750 
Q 2819 4750 3233 4129 
Q 3647 3509 3647 2328 
Q 3647 1150 3233 529 
Q 2819 -91 2034 -91 
Q 1250 -91 836 529 
Q 422 1150 422 2328 
Q 422 3509 836 4129 
Q 1250 4750 2034 4750 
z
" transform="scale(0.015625)"/>
       </defs>
       <use xlink:href="#DejaVuSans-30"/>
      </g>
     </g>
    </g>
    <g id="xtick_2">
     <g id="line2d_2">
      <g>
       <use xlink:href="#m806dea1592" x="138.503653" y="307.584" style="stroke: #000000; stroke-width: 0.8"/>
      </g>
     </g>
     <g id="text_2">
      <!-- 20000 -->
      <g transform="translate(122.597403 322.182437) scale(0.1 -0.1)">
       <defs>
        <path id="DejaVuSans-32" d="M 1228 531 
L 3431 531 
L 3431 0 
L 469 0 
L 469 531 
Q 828 903 1448 1529 
Q 2069 2156 2228 2338 
Q 2531 2678 2651 2914 
Q 2772 3150 2772 3378 
Q 2772 3750 2511 3984 
Q 2250 4219 1831 4219 
Q 1534 4219 1204 4116 
Q 875 4013 500 3803 
L 500 4441 
Q 881 4594 1212 4672 
Q 1544 4750 1819 4750 
Q 2544 4750 2975 4387 
Q 3406 4025 3406 3419 
Q 3406 3131 3298 2873 
Q 3191 2616 2906 2266 
Q 2828 2175 2409 1742 
Q 1991 1309 1228 531 
z
" transform="scale(0.015625)"/>
       </defs>
       <use xlink:href="#DejaVuSans-32"/>
       <use xlink:href="#DejaVuSans-30" transform="translate(63.623047 0)"/>
       <use xlink:href="#DejaVuSans-30" transform="translate(127.246094 0)"/>
       <use xlink:href="#DejaVuSans-30" transform="translate(190.869141 0)"/>
       <use xlink:href="#DejaVuSans-30" transform="translate(254.492188 0)"/>
      </g>
     </g>
    </g>
    <g id="xtick_3">
     <g id="line2d_3">
      <g>
       <use xlink:href="#m806dea1592" x="203.499558" y="307.584" style="stroke: #000000; stroke-width: 0.8"/>
      </g>
     </g>
     <g id="text_3">
      <!-- 40000 -->
      <g transform="translate(187.593308 322.182437) scale(0.1 -0.1)">
       <defs>
        <path id="DejaVuSans-34" d="M 2419 4116 
L 825 1625 
L 2419 1625 
L 2419 4116 
z
M 2253 4666 
L 3047 4666 
L 3047 1625 
L 3713 1625 
L 3713 1100 
L 3047 1100 
L 3047 0 
L 2419 0 
L 2419 1100 
L 313 1100 
L 313 1709 
L 2253 4666 
z
" transform="scale(0.015625)"/>
       </defs>
       <use xlink:href="#DejaVuSans-34"/>
       <use xlink:href="#DejaVuSans-30" transform="translate(63.623047 0)"/>
       <use xlink:href="#DejaVuSans-30" transform="translate(127.246094 0)"/>
       <use xlink:href="#DejaVuSans-30" transform="translate(190.869141 0)"/>
       <use xlink:href="#DejaVuSans-30" transform="translate(254.492188 0)"/>
      </g>
     </g>
    </g>
    <g id="xtick_4">
     <g id="line2d_4">
      <g>
       <use xlink:href="#m806dea1592" x="268.495463" y="307.584" style="stroke: #000000; stroke-width: 0.8"/>
      </g>
     </g>
     <g id="text_4">
      <!-- 60000 -->
      <g transform="translate(252.589213 322.182437) scale(0.1 -0.1)">
       <defs>
        <path id="DejaVuSans-36" d="M 2113 2584 
Q 1688 2584 1439 2293 
Q 1191 2003 1191 1497 
Q 1191 994 1439 701 
Q 1688 409 2113 409 
Q 2538 409 2786 701 
Q 3034 994 3034 1497 
Q 3034 2003 2786 2293 
Q 2538 2584 2113 2584 
z
M 3366 4563 
L 3366 3988 
Q 3128 4100 2886 4159 
Q 2644 4219 2406 4219 
Q 1781 4219 1451 3797 
Q 1122 3375 1075 2522 
Q 1259 2794 1537 2939 
Q 1816 3084 2150 3084 
Q 2853 3084 3261 2657 
Q 3669 2231 3669 1497 
Q 3669 778 3244 343 
Q 2819 -91 2113 -91 
Q 1303 -91 875 529 
Q 447 1150 447 2328 
Q 447 3434 972 4092 
Q 1497 4750 2381 4750 
Q 2619 4750 2861 4703 
Q 3103 4656 3366 4563 
z
" transform="scale(0.015625)"/>
       </defs>
       <use xlink:href="#DejaVuSans-36"/>
       <use xlink:href="#DejaVuSans-30" transform="translate(63.623047 0)"/>
       <use xlink:href="#DejaVuSans-30" transform="translate(127.246094 0)"/>
       <use xlink:href="#DejaVuSans-30" transform="translate(190.869141 0)"/>
       <use xlink:href="#DejaVuSans-30" transform="translate(254.492188 0)"/>
      </g>
     </g>
    </g>
    <g id="xtick_5">
     <g id="line2d_5">
      <g>
       <use xlink:href="#m806dea1592" x="333.491368" y="307.584" style="stroke: #000000; stroke-width: 0.8"/>
      </g>
     </g>
     <g id="text_5">
      <!-- 80000 -->
      <g transform="translate(317.585118 322.182437) scale(0.1 -0.1)">
       <defs>
        <path id="DejaVuSans-38" d="M 2034 2216 
Q 1584 2216 1326 1975 
Q 1069 1734 1069 1313 
Q 1069 891 1326 650 
Q 1584 409 2034 409 
Q 2484 409 2743 651 
Q 3003 894 3003 1313 
Q 3003 1734 2745 1975 
Q 2488 2216 2034 2216 
z
M 1403 2484 
Q 997 2584 770 2862 
Q 544 3141 544 3541 
Q 544 4100 942 4425 
Q 1341 4750 2034 4750 
Q 2731 4750 3128 4425 
Q 3525 4100 3525 3541 
Q 3525 3141 3298 2862 
Q 3072 2584 2669 2484 
Q 3125 2378 3379 2068 
Q 3634 1759 3634 1313 
Q 3634 634 3220 271 
Q 2806 -91 2034 -91 
Q 1263 -91 848 271 
Q 434 634 434 1313 
Q 434 1759 690 2068 
Q 947 2378 1403 2484 
z
M 1172 3481 
Q 1172 3119 1398 2916 
Q 1625 2713 2034 2713 
Q 2441 2713 2670 2916 
Q 2900 3119 2900 3481 
Q 2900 3844 2670 4047 
Q 2441 4250 2034 4250 
Q 1625 4250 1398 4047 
Q 1172 3844 1172 3481 
z
" transform="scale(0.015625)"/>
       </defs>
       <use xlink:href="#DejaVuSans-38"/>
       <use xlink:href="#DejaVuSans-30" transform="translate(63.623047 0)"/>
       <use xlink:href="#DejaVuSans-30" transform="translate(127.246094 0)"/>
       <use xlink:href="#DejaVuSans-30" transform="translate(190.869141 0)"/>
       <use xlink:href="#DejaVuSans-30" transform="translate(254.492188 0)"/>
      </g>
     </g>
    </g>
    <g id="xtick_6">
     <g id="line2d_6">
      <g>
       <use xlink:href="#m806dea1592" x="398.487273" y="307.584" style="stroke: #000000; stroke-width: 0.8"/>
      </g>
     </g>
     <g id="text_6">
      <!-- 100000 -->
      <g transform="translate(379.399773 322.182437) scale(0.1 -0.1)">
       <defs>
        <path id="DejaVuSans-31" d="M 794 531 
L 1825 531 
L 1825 4091 
L 703 3866 
L 703 4441 
L 1819 4666 
L 2450 4666 
L 2450 531 
L 3481 531 
L 3481 0 
L 794 0 
L 794 531 
z
" transform="scale(0.015625)"/>
       </defs>
       <use xlink:href="#DejaVuSans-31"/>
       <use xlink:href="#DejaVuSans-30" transform="translate(63.623047 0)"/>
       <use xlink:href="#DejaVuSans-30" transform="translate(127.246094 0)"/>
       <use xlink:href="#DejaVuSans-30" transform="translate(190.869141 0)"/>
       <use xlink:href="#DejaVuSans-30" transform="translate(254.492188 0)"/>
       <use xlink:href="#DejaVuSans-30" transform="translate(318.115234 0)"/>
      </g>
     </g>
    </g>
    <g id="text_7">
     <!-- $n$ -->
     <g transform="translate(232.96 335.860562) scale(0.1 -0.1)">
      <defs>
       <path id="DejaVuSans-Oblique-6e" d="M 3566 2113 
L 3156 0 
L 2578 0 
L 2988 2091 
Q 3016 2238 3031 2350 
Q 3047 2463 3047 2528 
Q 3047 2791 2881 2937 
Q 2716 3084 2419 3084 
Q 1956 3084 1622 2776 
Q 1288 2469 1184 1941 
L 800 0 
L 225 0 
L 903 3500 
L 1478 3500 
L 1363 2950 
Q 1603 3253 1940 3418 
Q 2278 3584 2650 3584 
Q 3113 3584 3367 3334 
Q 3622 3084 3622 2631 
Q 3622 2519 3608 2391 
Q 3594 2263 3566 2113 
z
" transform="scale(0.015625)"/>
      </defs>
      <use xlink:href="#DejaVuSans-Oblique-6e"/>
     </g>
    </g>
   </g>
   <g id="matplotlib.axis_2">
    <g id="ytick_1">
     <g id="line2d_7">
      <defs>
       <path id="m18b1b06141" d="M 0 0 
L -3.5 0 
" style="stroke: #000000; stroke-width: 0.8"/>
      </defs>
      <g>
       <use xlink:href="#m18b1b06141" x="57.6" y="269.407405" style="stroke: #000000; stroke-width: 0.8"/>
      </g>
     </g>
     <g id="text_8">
      <!-- 2.72 -->
      <g transform="translate(28.334375 273.206624) scale(0.1 -0.1)">
       <defs>
        <path id="DejaVuSans-2e" d="M 684 794 
L 1344 794 
L 1344 0 
L 684 0 
L 684 794 
z
" transform="scale(0.015625)"/>
        <path id="DejaVuSans-37" d="M 525 4666 
L 3525 4666 
L 3525 4397 
L 1831 0 
L 1172 0 
L 2766 4134 
L 525 4134 
L 525 4666 
z
" transform="scale(0.015625)"/>
       </defs>
       <use xlink:href="#DejaVuSans-32"/>
       <use xlink:href="#DejaVuSans-2e" transform="translate(63.623047 0)"/>
       <use xlink:href="#DejaVuSans-37" transform="translate(95.410156 0)"/>
       <use xlink:href="#DejaVuSans-32" transform="translate(159.033203 0)"/>
      </g>
     </g>
    </g>
    <g id="ytick_2">
     <g id="line2d_8">
      <g>
       <use xlink:href="#m18b1b06141" x="57.6" y="226.239524" style="stroke: #000000; stroke-width: 0.8"/>
      </g>
     </g>
     <g id="text_9">
      <!-- 2.73 -->
      <g transform="translate(28.334375 230.038743) scale(0.1 -0.1)">
       <defs>
        <path id="DejaVuSans-33" d="M 2597 2516 
Q 3050 2419 3304 2112 
Q 3559 1806 3559 1356 
Q 3559 666 3084 287 
Q 2609 -91 1734 -91 
Q 1441 -91 1130 -33 
Q 819 25 488 141 
L 488 750 
Q 750 597 1062 519 
Q 1375 441 1716 441 
Q 2309 441 2620 675 
Q 2931 909 2931 1356 
Q 2931 1769 2642 2001 
Q 2353 2234 1838 2234 
L 1294 2234 
L 1294 2753 
L 1863 2753 
Q 2328 2753 2575 2939 
Q 2822 3125 2822 3475 
Q 2822 3834 2567 4026 
Q 2313 4219 1838 4219 
Q 1578 4219 1281 4162 
Q 984 4106 628 3988 
L 628 4550 
Q 988 4650 1302 4700 
Q 1616 4750 1894 4750 
Q 2613 4750 3031 4423 
Q 3450 4097 3450 3541 
Q 3450 3153 3228 2886 
Q 3006 2619 2597 2516 
z
" transform="scale(0.015625)"/>
       </defs>
       <use xlink:href="#DejaVuSans-32"/>
       <use xlink:href="#DejaVuSans-2e" transform="translate(63.623047 0)"/>
       <use xlink:href="#DejaVuSans-37" transform="translate(95.410156 0)"/>
       <use xlink:href="#DejaVuSans-33" transform="translate(159.033203 0)"/>
      </g>
     </g>
    </g>
    <g id="ytick_3">
     <g id="line2d_9">
      <g>
       <use xlink:href="#m18b1b06141" x="57.6" y="183.071643" style="stroke: #000000; stroke-width: 0.8"/>
      </g>
     </g>
     <g id="text_10">
      <!-- 2.74 -->
      <g transform="translate(28.334375 186.870862) scale(0.1 -0.1)">
       <use xlink:href="#DejaVuSans-32"/>
       <use xlink:href="#DejaVuSans-2e" transform="translate(63.623047 0)"/>
       <use xlink:href="#DejaVuSans-37" transform="translate(95.410156 0)"/>
       <use xlink:href="#DejaVuSans-34" transform="translate(159.033203 0)"/>
      </g>
     </g>
    </g>
    <g id="ytick_4">
     <g id="line2d_10">
      <g>
       <use xlink:href="#m18b1b06141" x="57.6" y="139.903762" style="stroke: #000000; stroke-width: 0.8"/>
      </g>
     </g>
     <g id="text_11">
      <!-- 2.75 -->
      <g transform="translate(28.334375 143.702981) scale(0.1 -0.1)">
       <defs>
        <path id="DejaVuSans-35" d="M 691 4666 
L 3169 4666 
L 3169 4134 
L 1269 4134 
L 1269 2991 
Q 1406 3038 1543 3061 
Q 1681 3084 1819 3084 
Q 2600 3084 3056 2656 
Q 3513 2228 3513 1497 
Q 3513 744 3044 326 
Q 2575 -91 1722 -91 
Q 1428 -91 1123 -41 
Q 819 9 494 109 
L 494 744 
Q 775 591 1075 516 
Q 1375 441 1709 441 
Q 2250 441 2565 725 
Q 2881 1009 2881 1497 
Q 2881 1984 2565 2268 
Q 2250 2553 1709 2553 
Q 1456 2553 1204 2497 
Q 953 2441 691 2322 
L 691 4666 
z
" transform="scale(0.015625)"/>
       </defs>
       <use xlink:href="#DejaVuSans-32"/>
       <use xlink:href="#DejaVuSans-2e" transform="translate(63.623047 0)"/>
       <use xlink:href="#DejaVuSans-37" transform="translate(95.410156 0)"/>
       <use xlink:href="#DejaVuSans-35" transform="translate(159.033203 0)"/>
      </g>
     </g>
    </g>
    <g id="ytick_5">
     <g id="line2d_11">
      <g>
       <use xlink:href="#m18b1b06141" x="57.6" y="96.735881" style="stroke: #000000; stroke-width: 0.8"/>
      </g>
     </g>
     <g id="text_12">
      <!-- 2.76 -->
      <g transform="translate(28.334375 100.5351) scale(0.1 -0.1)">
       <use xlink:href="#DejaVuSans-32"/>
       <use xlink:href="#DejaVuSans-2e" transform="translate(63.623047 0)"/>
       <use xlink:href="#DejaVuSans-37" transform="translate(95.410156 0)"/>
       <use xlink:href="#DejaVuSans-36" transform="translate(159.033203 0)"/>
      </g>
     </g>
    </g>
    <g id="ytick_6">
     <g id="line2d_12">
      <g>
       <use xlink:href="#m18b1b06141" x="57.6" y="53.568" style="stroke: #000000; stroke-width: 0.8"/>
      </g>
     </g>
     <g id="text_13">
      <!-- 2.77 -->
      <g transform="translate(28.334375 57.367219) scale(0.1 -0.1)">
       <use xlink:href="#DejaVuSans-32"/>
       <use xlink:href="#DejaVuSans-2e" transform="translate(63.623047 0)"/>
       <use xlink:href="#DejaVuSans-37" transform="translate(95.410156 0)"/>
       <use xlink:href="#DejaVuSans-37" transform="translate(159.033203 0)"/>
      </g>
     </g>
    </g>
   </g>
   <g id="line2d_13">
    <path d="M 73.832727 53.568 
L 74.157707 75.151941 
L 74.482686 67.957294 
L 74.807666 215.447554 
L 75.132645 217.605948 
L 75.457625 161.487703 
L 75.782604 183.071643 
L 76.107584 172.279673 
L 76.432563 120.718037 
L 76.757543 114.003033 
L 77.082523 159.525526 
L 77.407502 147.098409 
L 78.057461 68.9851 
L 78.382441 96.735881 
L 78.70742 64.35997 
L 79.0324 117.050178 
L 79.682359 110.367843 
L 80.007338 101.052669 
L 80.332318 86.457814 
L 80.982277 149.288084 
L 81.307256 138.1051 
L 81.632236 179.618213 
L 81.957215 176.430431 
L 82.282195 211.85023 
L 82.932154 233.682262 
L 83.257133 216.167019 
L 83.582113 216.491938 
L 83.907093 208.702572 
L 84.882031 232.406364 
L 85.207011 237.031494 
L 85.53199 247.240115 
L 85.85697 234.191502 
L 86.181949 248.376899 
L 86.831908 263.090154 
L 87.156888 273.518632 
L 88.131826 279.000268 
L 88.456806 284.42232 
L 88.781785 284.102854 
L 89.106765 295.488 
L 89.431744 288.788903 
L 89.756724 286.674558 
L 90.406683 281.029527 
L 90.731663 270.221894 
L 91.056642 275.003242 
L 91.381622 281.965334 
L 91.706601 272.490825 
L 92.031581 267.135411 
L 92.35656 270.151679 
L 92.68154 254.774225 
L 93.006519 255.737576 
L 93.331499 262.330703 
L 93.656478 257.571051 
L 93.981458 257.073725 
L 94.631417 252.804374 
L 94.956396 257.634347 
L 95.281376 259.098657 
L 95.931335 270.033027 
L 96.256314 262.623881 
L 96.581294 260.28743 
L 96.906274 263.411866 
L 97.231253 278.868859 
L 97.556233 279.324351 
L 97.881212 290.70356 
L 98.531171 294.074766 
L 98.856151 294.865386 
L 99.18113 284.707414 
L 99.50611 281.818171 
L 99.831089 280.066141 
L 100.156069 276.777531 
L 100.806028 273.518632 
L 101.131007 266.868118 
L 101.455987 270.913262 
L 102.105946 261.068155 
L 102.430925 261.646887 
L 102.755905 258.855257 
L 103.405864 261.430732 
L 103.730844 260.12399 
L 104.055823 264.355845 
L 104.380803 261.228228 
L 104.705782 263.561755 
L 105.030762 262.73196 
L 105.355741 260.597634 
L 105.680721 260.250582 
L 106.0057 254.730326 
L 106.33068 254.448239 
L 106.655659 256.287755 
L 107.305618 261.520965 
L 107.630598 260.362706 
L 107.955577 260.855278 
L 108.280557 260.128328 
L 108.605536 265.010677 
L 108.930516 267.427227 
L 109.255495 271.369582 
L 109.580475 277.185402 
L 109.905455 277.501383 
L 110.230434 275.519672 
L 110.555414 272.058065 
L 110.880393 274.287253 
L 111.205373 270.895953 
L 111.530352 270.145318 
L 111.855332 264.651622 
L 112.180311 272.309448 
L 112.83027 276.185833 
L 113.480229 270.109322 
L 113.805209 269.059277 
L 114.130188 270.788777 
L 114.455168 271.463019 
L 114.780147 270.087214 
L 115.105127 269.744654 
L 115.430106 270.411309 
L 116.080066 274.679818 
L 116.405045 272.677699 
L 116.730025 264.863418 
L 117.055004 261.997993 
L 117.379984 264.291212 
L 117.704963 261.472133 
L 118.029943 264.996089 
L 118.354922 264.402433 
L 118.679902 261.643398 
L 119.004881 261.698855 
L 119.65484 266.367414 
L 120.304799 258.915212 
L 120.629779 257.796734 
L 120.954758 262.902656 
L 121.279738 260.010315 
L 121.604717 259.49046 
L 121.929697 261.005603 
L 122.579656 257.972205 
L 122.904636 261.455427 
L 123.229615 261.789544 
L 123.554595 262.679943 
L 123.879574 261.330834 
L 124.529533 264.183267 
L 124.854513 262.577044 
L 125.179492 259.090553 
L 125.504472 260.50403 
L 125.829451 257.609972 
L 126.154431 260.081011 
L 126.47941 260.932729 
L 126.80439 257.825779 
L 127.129369 260.512205 
L 127.454349 260.565791 
L 127.779328 257.775341 
L 128.104308 256.30287 
L 128.429287 259.190155 
L 128.754267 263.313116 
L 129.079247 261.834093 
L 129.729206 267.660728 
L 130.054185 264.941762 
L 130.379165 267.187343 
L 130.704144 267.199957 
L 131.029124 269.651292 
L 131.354103 269.892438 
L 131.679083 270.613212 
L 132.004062 273.004729 
L 132.329042 272.030868 
L 132.654021 269.644591 
L 132.979001 270.350965 
L 133.30398 270.580445 
L 133.62896 269.640745 
L 133.953939 269.407405 
L 134.278919 267.560651 
L 134.603898 268.259323 
L 134.928878 266.438186 
L 135.253857 265.545016 
L 135.578837 266.017257 
L 135.903817 261.53826 
L 136.228796 259.789691 
L 136.553776 260.061781 
L 136.878755 260.552455 
L 137.203735 261.258366 
L 137.528714 260.423227 
L 137.853694 260.250582 
L 138.503653 262.716384 
L 138.828632 264.467797 
L 139.153612 267.484084 
L 139.478591 266.64296 
L 139.803571 265.386867 
L 140.12855 261.826704 
L 140.778509 259.814543 
L 141.103489 262.143579 
L 141.428468 260.73252 
L 141.753448 262.41832 
L 142.078428 260.200985 
L 142.403407 261.0589 
L 142.728387 259.2741 
L 143.053366 260.128328 
L 143.378346 259.769925 
L 144.028305 257.073725 
L 144.353284 253.962017 
L 144.678264 253.046975 
L 145.003243 254.298647 
L 145.328223 253.195034 
L 145.653202 250.740213 
L 145.978182 251.017501 
L 146.303161 254.375732 
L 146.628141 251.756538 
L 146.95312 251.452623 
L 147.2781 252.482553 
L 147.603079 251.420788 
L 147.928059 249.802778 
L 148.578018 252.775624 
L 148.902998 255.080134 
L 149.227977 254.585815 
L 149.552957 255.756024 
L 149.877936 253.426105 
L 150.202916 253.676737 
L 150.527895 253.014539 
L 150.852875 252.902039 
L 151.502834 250.521457 
L 151.827813 253.46574 
L 152.152793 251.569438 
L 152.802752 255.077084 
L 153.127731 252.492644 
L 153.452711 252.210444 
L 153.77769 252.979143 
L 154.752629 258.356428 
L 155.077609 257.368554 
L 155.402588 255.874617 
L 156.052547 261.249695 
L 156.377527 261.112401 
L 156.702506 259.795807 
L 157.027486 261.008985 
L 157.352465 262.882028 
L 157.677445 262.407208 
L 158.002424 263.596344 
L 158.327404 263.784003 
L 158.652383 264.134992 
L 158.977363 264.811585 
L 159.302342 266.464141 
L 159.627322 264.031782 
L 159.952301 264.863418 
L 160.277281 265.042114 
L 160.60226 265.863773 
L 160.92724 263.630291 
L 161.577199 261.442852 
L 161.902179 260.202489 
L 162.227158 261.026828 
L 162.552138 259.009302 
L 162.877117 258.419217 
L 163.202097 258.146219 
L 163.852056 259.314196 
L 164.177035 257.338965 
L 164.502015 253.990305 
L 164.826994 256.65675 
L 165.151974 258.385819 
L 165.476953 256.594324 
L 165.801933 257.247439 
L 166.126912 256.987173 
L 166.451892 257.0306 
L 166.776871 259.931529 
L 167.101851 259.964431 
L 167.42683 260.295846 
L 167.75181 259.136427 
L 168.07679 261.990244 
L 168.726749 263.072187 
L 169.051728 262.800076 
L 169.376708 263.115138 
L 169.701687 264.157258 
L 170.026667 262.576124 
L 170.351646 263.323341 
L 170.676626 262.766193 
L 171.001605 264.371152 
L 171.326585 264.674714 
L 171.651564 263.689805 
L 171.976544 261.999056 
L 172.301523 262.591424 
L 172.626503 262.89684 
L 172.951482 261.930615 
L 173.276462 261.95497 
L 173.601441 263.240565 
L 173.926421 261.304696 
L 174.2514 260.91308 
L 174.57638 260.940393 
L 174.90136 261.10589 
L 175.226339 258.511998 
L 175.551319 257.996787 
L 175.876298 257.89597 
L 176.201278 256.429719 
L 176.526257 255.517425 
L 176.851237 256.104096 
L 177.176216 256.281122 
L 177.501196 257.131539 
L 177.826175 257.169782 
L 178.151155 256.001231 
L 178.476134 256.443676 
L 178.801114 253.819004 
L 179.126093 253.999792 
L 179.451073 254.444305 
L 179.776052 254.358052 
L 180.101032 256.114856 
L 180.426011 256.417678 
L 180.750991 256.457041 
L 181.075971 257.017832 
L 181.40095 257.05515 
L 181.72593 256.962611 
L 182.050909 257.258361 
L 182.375889 258.58322 
L 183.025848 256.341756 
L 183.350827 254.209246 
L 183.675807 254.763434 
L 184.000786 253.536861 
L 184.325766 255.735466 
L 184.650745 256.027887 
L 184.975725 254.808355 
L 185.300704 254.725306 
L 185.625684 254.142241 
L 186.600622 257.747115 
L 187.250581 253.620294 
L 187.900541 251.747818 
L 188.22552 252.164711 
L 188.5505 251.847589 
L 188.875479 252.140253 
L 189.200459 254.613918 
L 189.525438 254.413519 
L 189.850418 253.852498 
L 190.500377 253.099539 
L 190.825356 253.862185 
L 191.150336 254.143624 
L 191.475315 253.353235 
L 191.800295 253.278746 
L 192.125274 253.914275 
L 192.450254 253.013046 
L 192.775233 255.057319 
L 193.100213 254.627098 
L 193.750172 254.706992 
L 194.075152 255.212037 
L 194.400131 254.321855 
L 194.725111 254.015104 
L 195.05009 253.132883 
L 195.37507 253.636739 
L 195.700049 251.267711 
L 196.025029 250.399797 
L 196.350008 248.965472 
L 196.674988 249.247207 
L 196.999967 249.073061 
L 197.324947 249.919543 
L 197.649926 248.840509 
L 197.974906 247.20356 
L 198.624865 248.2159 
L 198.949844 248.047132 
L 199.274824 246.763788 
L 199.599803 247.267178 
L 199.924783 248.433807 
L 200.249762 248.044838 
L 200.574742 249.203512 
L 201.224701 248.317753 
L 201.549681 246.508707 
L 201.87466 246.894536 
L 202.19964 245.09822 
L 202.849599 246.521921 
L 203.174578 246.254707 
L 203.499558 246.204669 
L 203.824537 246.477832 
L 204.149517 245.890574 
L 204.799476 247.930316 
L 205.124455 250.967792 
L 205.774414 250.952341 
L 206.099394 250.362752 
L 206.424373 252.098035 
L 206.749353 251.508528 
L 207.074333 249.766544 
L 207.724292 251.324976 
L 208.049271 252.307085 
L 208.374251 252.348291 
L 208.69923 253.634526 
L 209.02421 253.46531 
L 209.349189 253.503449 
L 209.674169 253.95351 
L 210.324128 254.334535 
L 210.649107 255.904656 
L 210.974087 255.120163 
L 211.299066 254.950237 
L 211.624046 256.812541 
L 211.949025 256.63944 
L 212.274005 256.770438 
L 212.598984 256.093947 
L 212.923964 256.527478 
L 213.248943 256.557431 
L 213.573923 258.089608 
L 213.898903 257.216476 
L 214.223882 258.241579 
L 214.548862 257.769981 
L 215.198821 258.813453 
L 215.5238 257.158395 
L 215.84878 258.861827 
L 216.173759 258.984181 
L 216.498739 259.694632 
L 216.823718 259.61877 
L 217.148698 260.5199 
L 217.473677 259.370629 
L 217.798657 260.462709 
L 218.123636 260.967842 
L 218.773595 259.074154 
L 219.098575 259.289933 
L 219.423554 258.639471 
L 220.073514 258.97437 
L 220.398493 257.564889 
L 220.723473 257.686325 
L 221.048452 257.236725 
L 221.373432 254.796738 
L 221.698411 253.787448 
L 222.023391 254.199465 
L 222.34837 254.798188 
L 222.67335 254.830016 
L 222.998329 254.67402 
L 223.323309 256.766052 
L 223.648288 257.634347 
L 223.973268 258.12595 
L 224.298247 257.312956 
L 224.623227 258.452975 
L 224.948206 258.569117 
L 225.273186 258.037706 
L 225.598165 259.353347 
L 225.923145 259.650912 
L 226.573104 262.075281 
L 226.898084 263.371218 
L 227.223063 263.8403 
L 227.873022 266.044854 
L 228.198002 265.96123 
L 228.522981 266.420948 
L 228.847961 267.23998 
L 229.17294 266.523538 
L 229.822899 265.458576 
L 230.147879 264.12337 
L 230.472858 265.296178 
L 230.797838 265.661432 
L 231.122817 265.046114 
L 231.447797 265.321556 
L 232.097756 266.399807 
L 232.422735 267.377014 
L 232.747715 267.29306 
L 233.072695 267.649039 
L 233.397674 267.389395 
L 233.722654 267.305926 
L 234.047633 268.620946 
L 234.372613 267.576041 
L 234.697592 268.537085 
L 235.022572 268.017695 
L 235.347551 269.060675 
L 235.99751 269.407405 
L 236.32249 268.718098 
L 236.647469 268.977446 
L 236.972449 270.95218 
L 237.297428 270.263911 
L 237.622408 269.150962 
L 237.947387 268.980845 
L 238.272367 269.833124 
L 238.597346 270.257167 
L 238.922326 269.831451 
L 239.247305 271.01562 
L 239.572285 269.745314 
L 239.897265 269.744654 
L 240.222244 268.902518 
L 240.872203 271.000007 
L 242.497101 268.909314 
L 242.82208 267.584577 
L 243.14706 266.926493 
L 243.472039 267.096314 
L 243.797019 266.606436 
L 244.121998 266.77622 
L 244.446978 266.617086 
L 244.771957 266.048993 
L 245.421916 267.040924 
L 245.746896 268.592917 
L 246.071876 268.919633 
L 246.721835 269.812357 
L 247.046814 268.922373 
L 247.371794 269.488093 
L 247.696773 269.407405 
L 248.021753 269.889728 
L 248.346732 269.086454 
L 248.671712 268.686606 
L 248.996691 270.766394 
L 249.321671 271.402224 
L 249.97163 271.792371 
L 250.296609 270.756401 
L 250.621589 271.070755 
L 250.946568 272.807073 
L 251.271548 273.432199 
L 251.596527 273.661175 
L 251.921507 273.181646 
L 252.246486 273.724193 
L 252.571466 273.40298 
L 252.896446 272.613715 
L 253.546405 273.537184 
L 253.871384 273.063064 
L 254.196364 274.14345 
L 254.521343 273.747444 
L 254.846323 275.364263 
L 255.171302 275.044713 
L 255.496282 275.49716 
L 255.821261 274.947668 
L 256.146241 274.784188 
L 256.47122 272.627744 
L 256.7962 273.310884 
L 257.121179 273.227572 
L 257.446159 272.458139 
L 257.771138 273.214097 
L 258.096118 272.751396 
L 258.421097 274.035245 
L 258.746077 274.027126 
L 259.071057 274.623839 
L 259.396036 274.312846 
L 259.721016 273.550919 
L 260.045995 273.39329 
L 260.695954 273.754171 
L 261.020934 273.522195 
L 261.670893 274.775432 
L 261.995872 274.39404 
L 262.970811 274.220291 
L 263.29579 273.768544 
L 263.62077 274.351419 
L 263.945749 274.269317 
L 264.270729 273.157937 
L 264.595708 274.326194 
L 264.920688 273.584942 
L 265.245667 274.748516 
L 265.570647 274.593394 
L 265.895627 275.897171 
L 266.220606 275.303861 
L 266.545586 276.020666 
L 266.870565 275.646796 
L 267.195545 276.940056 
L 267.520524 276.782822 
L 267.845504 277.059237 
L 268.170483 276.758196 
L 268.495463 276.098427 
L 268.820442 276.15912 
L 269.470401 276.852612 
L 269.795381 277.554985 
L 270.12036 277.256111 
L 270.44534 278.026735 
L 270.770319 278.225885 
L 271.095299 277.572383 
L 271.420278 277.700742 
L 272.070238 278.662712 
L 272.395217 278.718125 
L 272.720197 278.914198 
L 273.045176 277.422289 
L 273.370156 277.268873 
L 273.695135 277.606499 
L 274.020115 277.313354 
L 274.345094 277.300561 
L 274.670074 277.706239 
L 275.320033 278.096592 
L 275.645012 278.637836 
L 275.969992 277.237213 
L 276.294971 277.501383 
L 276.619951 278.317256 
L 276.94493 277.958231 
L 277.594889 276.075056 
L 277.919869 275.378161 
L 278.244848 275.163123 
L 279.219787 276.977128 
L 279.544767 276.897101 
L 279.869746 277.361172 
L 280.194726 279.181265 
L 280.519705 279.572526 
L 280.844685 278.947642 
L 281.169664 279.540711 
L 281.494644 279.659777 
L 281.819623 279.441749 
L 282.469582 278.202106 
L 282.794562 278.322511 
L 283.119541 277.773274 
L 283.444521 277.89397 
L 283.7695 276.413012 
L 284.09448 276.335584 
L 284.419459 275.726278 
L 284.744439 276.579915 
L 285.069419 277.099378 
L 285.394398 277.352414 
L 285.719378 277.208033 
L 286.044357 276.932082 
L 286.369337 277.316025 
L 287.019296 277.029132 
L 287.344275 276.886339 
L 287.669255 277.464536 
L 287.994234 277.386923 
L 288.319214 278.093227 
L 288.644193 276.971566 
L 288.969173 277.025267 
L 289.294152 276.623723 
L 289.619132 277.132184 
L 289.944111 276.926135 
L 290.59407 278.583811 
L 290.91905 278.311991 
L 291.244029 278.942997 
L 291.569009 279.250454 
L 291.893989 280.135138 
L 292.218968 279.221203 
L 292.868927 280.854888 
L 293.843866 281.504599 
L 294.168845 280.78745 
L 294.493825 281.659466 
L 294.818804 281.958419 
L 295.143784 281.813424 
L 295.793743 281.272261 
L 296.118722 281.885128 
L 296.768681 282.351486 
L 297.093661 282.395416 
L 297.41864 281.937995 
L 297.74362 280.105532 
L 298.0686 279.590277 
L 298.393579 280.074613 
L 299.043538 279.048647 
L 299.368518 279.469559 
L 299.693497 278.586782 
L 300.018477 278.821348 
L 300.343456 278.065719 
L 300.668436 278.732656 
L 300.993415 278.657665 
L 301.318395 279.321854 
L 302.293333 278.421153 
L 302.618313 278.347137 
L 302.943292 278.70134 
L 303.268272 278.81031 
L 303.593251 278.187313 
L 304.24321 278.770579 
L 304.56819 279.182411 
L 304.89317 279.774972 
L 305.218149 278.852271 
L 305.543129 279.020421 
L 305.868108 278.644728 
L 306.193088 278.450956 
L 306.518067 278.79958 
L 306.843047 278.485887 
L 307.168026 278.833493 
L 308.792924 277.218168 
L 309.117903 277.564646 
L 309.442883 277.67233 
L 309.767862 277.542205 
L 310.092842 277.708921 
L 310.417821 278.644976 
L 310.742801 278.218384 
L 311.067781 278.619703 
L 311.39276 277.840475 
L 312.042719 279.464228 
L 312.367699 279.509277 
L 312.692678 280.082071 
L 313.342637 280.75506 
L 313.667617 281.265429 
L 313.992596 282.12443 
L 314.317576 282.107268 
L 314.642555 282.555574 
L 314.967535 281.898784 
L 315.292514 282.288144 
L 315.617494 282.908232 
L 316.267453 283.218816 
L 316.917412 283.066668 
L 317.242391 283.106013 
L 317.567371 283.432656 
L 318.21733 282.478158 
L 318.54231 282.747082 
L 318.867289 282.615062 
L 319.192269 281.969487 
L 319.517248 282.523142 
L 319.842228 282.790587 
L 320.167207 282.829829 
L 320.817166 282.227302 
L 321.142146 282.38043 
L 321.467125 283.325228 
L 322.442064 283.552494 
L 322.767043 283.196363 
L 323.092023 282.22287 
L 323.417002 281.757124 
L 324.391941 282.49197 
L 324.716921 282.754266 
L 325.36688 283.611031 
L 325.691859 283.703984 
L 326.016839 283.57447 
L 326.341818 282.28009 
L 326.666798 282.263565 
L 326.991777 281.472275 
L 327.316757 281.014646 
L 327.641736 281.275812 
L 327.966716 280.929866 
L 328.616675 281.010492 
L 328.941654 280.611283 
L 329.266634 279.993684 
L 329.591613 279.815904 
L 329.916593 279.419727 
L 330.891532 280.144871 
L 331.216511 280.730128 
L 331.541491 279.411045 
L 331.86647 280.321549 
L 332.19145 279.114755 
L 332.516429 278.344294 
L 332.841409 278.711761 
L 333.491368 278.63454 
L 333.816347 278.353558 
L 334.466306 278.331276 
L 334.791286 277.514806 
L 335.116265 277.987357 
L 335.766224 278.340535 
L 336.091204 278.863736 
L 336.416183 278.638608 
L 337.066143 280.585278 
L 337.391122 280.784162 
L 338.366061 282.119419 
L 338.69104 280.887099 
L 339.01602 280.608863 
L 339.340999 280.014672 
L 339.665979 280.054428 
L 339.990958 279.936157 
L 340.315938 280.29139 
L 340.640917 279.963055 
L 340.965897 279.845325 
L 341.290876 280.35654 
L 341.940835 279.546108 
L 342.265815 280.264623 
L 342.590794 280.303646 
L 342.915774 280.186357 
L 343.240753 279.289209 
L 343.565733 279.692893 
L 343.890713 279.006033 
L 344.215692 278.99451 
L 344.865651 279.281735 
L 346.165569 280.932561 
L 346.815528 280.289202 
L 347.140508 280.430083 
L 347.465487 281.031497 
L 348.115446 280.544208 
L 348.765405 280.365014 
L 349.415364 279.118907 
L 349.740344 278.29491 
L 350.065324 279.096084 
L 350.390303 278.730046 
L 350.715283 278.66851 
L 351.040262 278.253282 
L 351.365242 278.192448 
L 352.015201 277.617866 
L 352.34018 277.557984 
L 352.66516 277.950525 
L 352.990139 277.037077 
L 353.315119 277.2789 
L 353.965078 278.461155 
L 354.615037 278.789557 
L 354.940016 278.828571 
L 355.264996 279.265814 
L 355.914955 278.150267 
L 356.564914 277.931947 
L 356.889894 277.476631 
L 357.214873 277.41794 
L 357.864832 278.23832 
L 358.839771 277.667319 
L 359.16475 277.903473 
L 359.48973 277.550437 
L 359.814709 277.737189 
L 360.139689 277.385143 
L 360.464668 277.718322 
L 360.789648 277.122931 
L 361.439607 277.300404 
L 361.764586 277.826845 
L 362.089566 277.914589 
L 362.739525 279.108053 
L 363.064505 279.048716 
L 363.714464 279.172144 
L 364.039443 279.064649 
L 364.364423 279.680879 
L 364.689402 279.669413 
L 365.014382 279.465473 
L 365.664341 281.075698 
L 366.3143 279.995753 
L 366.639279 279.936157 
L 367.289238 280.676896 
L 368.264177 279.973303 
L 368.589156 280.437084 
L 369.239115 280.175657 
L 369.564095 280.542918 
L 370.864013 280.91884 
L 371.188993 280.387881 
L 371.838952 280.834197 
L 372.163931 280.633873 
L 372.488911 281.372416 
L 372.81389 280.515752 
L 373.13887 280.316425 
L 373.463849 280.351375 
L 373.788829 280.05922 
L 374.113808 280.421048 
L 374.438788 279.989596 
L 374.763767 280.350719 
L 375.088747 280.199375 
L 375.413726 278.979616 
L 375.738706 278.969323 
L 376.063686 279.654561 
L 376.713645 279.447523 
L 377.038624 279.482992 
L 377.363604 279.149034 
L 377.688583 279.507582 
L 378.013563 279.358592 
L 378.338542 279.946259 
L 378.663522 279.383369 
L 378.988501 279.740143 
L 379.313481 279.729162 
L 379.96344 280.577037 
L 380.613399 281.238602 
L 380.938378 281.499888 
L 381.588337 281.656519 
L 381.913317 282.143977 
L 382.238296 282.08513 
L 382.563276 281.20935 
L 382.888256 281.106264 
L 383.213235 281.456363 
L 384.188174 281.237933 
L 384.838133 281.79902 
L 385.163112 281.335965 
L 385.488092 281.233606 
L 386.138051 281.702623 
L 386.46303 281.241591 
L 386.78801 281.542774 
L 387.112989 281.217064 
L 387.437969 281.964522 
L 388.737887 282.847302 
L 389.387846 282.153477 
L 390.037805 282.481866 
L 390.362785 282.734105 
L 390.687764 282.72045 
L 391.012744 282.044062 
L 391.337723 282.119419 
L 391.662703 282.988312 
L 391.987682 283.1066 
L 392.637641 282.946822 
L 392.962621 282.581733 
L 393.2876 282.568345 
L 393.937559 283.461046 
L 394.262539 283.403071 
L 394.587518 283.913211 
L 394.912498 283.98584 
L 395.237477 284.36355 
L 395.562457 283.825739 
L 396.862375 282.81331 
L 397.187355 283.14658 
L 397.512334 283.089502 
L 397.837314 283.205556 
L 398.162293 283.191744 
L 398.487273 283.005288 
L 398.487273 283.005288 
" clip-path="url(#pda01c28ea1)" style="fill: none; stroke: #0000ff; stroke-opacity: 0.6; stroke-linecap: square"/>
   </g>
   <g id="patch_3">
    <path d="M 57.6 307.584 
L 57.6 41.472 
" style="fill: none; stroke: #000000; stroke-width: 0.8; stroke-linejoin: miter; stroke-linecap: square"/>
   </g>
   <g id="patch_4">
    <path d="M 414.72 307.584 
L 414.72 41.472 
" style="fill: none; stroke: #000000; stroke-width: 0.8; stroke-linejoin: miter; stroke-linecap: square"/>
   </g>
   <g id="patch_5">
    <path d="M 57.6 307.584 
L 414.72 307.584 
" style="fill: none; stroke: #000000; stroke-width: 0.8; stroke-linejoin: miter; stroke-linecap: square"/>
   </g>
   <g id="patch_6">
    <path d="M 57.6 41.472 
L 414.72 41.472 
" style="fill: none; stroke: #000000; stroke-width: 0.8; stroke-linejoin: miter; stroke-linecap: square"/>
   </g>
   <g id="legend_1">
    <g id="line2d_14">
     <path d="M 341.92 57.292313 
L 351.92 57.292313 
L 361.92 57.292313 
" style="fill: none; stroke: #0000ff; stroke-opacity: 0.6; stroke-linecap: square"/>
    </g>
    <g id="text_14">
     <!-- $\hat{E}[N](n)$ -->
     <g transform="translate(369.92 60.792313) scale(0.1 -0.1)">
      <defs>
       <path id="DejaVuSans-302" d="M -1831 5119 
L -1369 5119 
L -603 3944 
L -1038 3944 
L -1600 4709 
L -2163 3944 
L -2597 3944 
L -1831 5119 
z
M -1600 3584 
L -1600 3584 
z
" transform="scale(0.015625)"/>
       <path id="DejaVuSans-Oblique-45" d="M 1081 4666 
L 4031 4666 
L 3928 4134 
L 1606 4134 
L 1338 2753 
L 3566 2753 
L 3463 2222 
L 1234 2222 
L 909 531 
L 3284 531 
L 3181 0 
L 172 0 
L 1081 4666 
z
" transform="scale(0.015625)"/>
       <path id="DejaVuSans-5b" d="M 550 4863 
L 1875 4863 
L 1875 4416 
L 1125 4416 
L 1125 -397 
L 1875 -397 
L 1875 -844 
L 550 -844 
L 550 4863 
z
" transform="scale(0.015625)"/>
       <path id="DejaVuSans-Oblique-4e" d="M 1081 4666 
L 1931 4666 
L 3219 666 
L 4000 4666 
L 4616 4666 
L 3706 0 
L 2853 0 
L 1569 4025 
L 788 0 
L 172 0 
L 1081 4666 
z
" transform="scale(0.015625)"/>
       <path id="DejaVuSans-5d" d="M 1947 4863 
L 1947 -844 
L 622 -844 
L 622 -397 
L 1369 -397 
L 1369 4416 
L 622 4416 
L 622 4863 
L 1947 4863 
z
" transform="scale(0.015625)"/>
       <path id="DejaVuSans-28" d="M 1984 4856 
Q 1566 4138 1362 3434 
Q 1159 2731 1159 2009 
Q 1159 1288 1364 580 
Q 1569 -128 1984 -844 
L 1484 -844 
Q 1016 -109 783 600 
Q 550 1309 550 2009 
Q 550 2706 781 3412 
Q 1013 4119 1484 4856 
L 1984 4856 
z
" transform="scale(0.015625)"/>
       <path id="DejaVuSans-29" d="M 513 4856 
L 1013 4856 
Q 1481 4119 1714 3412 
Q 1947 2706 1947 2009 
Q 1947 1309 1714 600 
Q 1481 -109 1013 -844 
L 513 -844 
Q 928 -128 1133 580 
Q 1338 1288 1338 2009 
Q 1338 2731 1133 3434 
Q 928 4138 513 4856 
z
" transform="scale(0.015625)"/>
      </defs>
      <use xlink:href="#DejaVuSans-302" transform="translate(64.374023 30.015625)"/>
      <use xlink:href="#DejaVuSans-Oblique-45" transform="translate(0 0.609375)"/>
      <use xlink:href="#DejaVuSans-5b" transform="translate(63.183594 0.609375)"/>
      <use xlink:href="#DejaVuSans-Oblique-4e" transform="translate(102.197266 0.609375)"/>
      <use xlink:href="#DejaVuSans-5d" transform="translate(177.001953 0.609375)"/>
      <use xlink:href="#DejaVuSans-28" transform="translate(216.015625 0.609375)"/>
      <use xlink:href="#DejaVuSans-Oblique-6e" transform="translate(255.029297 0.609375)"/>
      <use xlink:href="#DejaVuSans-29" transform="translate(318.408203 0.609375)"/>
     </g>
    </g>
   </g>
  </g>
 </g>
 <defs>
  <clipPath id="pda01c28ea1">
   <rect x="57.6" y="41.472" width="357.12" height="266.112"/>
  </clipPath>
 </defs>
</svg>
